<?xml version="1.0" encoding="utf-8"?>
<!-- Generator: Adobe Illustrator 18.1.0, SVG Export Plug-In . SVG Version: 6.00 Build 0)  -->
<svg version="1.1" id="Layer_1" xmlns="http://www.w3.org/2000/svg" xmlns:xlink="http://www.w3.org/1999/xlink" x="0px" y="0px"
	 viewBox="0 0 112.6 85" enable-background="new 0 0 112.6 85" xml:space="preserve">
<g>
	<polygon fill="#FFFFFF" points="60.4,42.3 53.6,35.7 46.9,42.3 46.9,71.8 53.6,71.8 60.4,71.8 	"/>
	<path fill="#FFFFFF" d="M102.8,39.5c-0.1-0.5-0.8-8.2-0.8-8.2s0-0.3-0.2-0.4c-0.2-0.2-0.5-0.1-0.5-0.1s-7.7,0.9-8.1,1
		c-0.5,0.1-0.7,0.2-0.7,0.2s-2.1,2.6-2.6,3.2c-0.4,0.5,0.6,1,0.6,1l3-0.3L82.1,49.7c0,0,0,0,0,0c-0.2,0-0.4,0-0.6,0l-23-22.9
		c0,0,0-0.1,0-0.1c0-2.7-2.2-4.9-4.9-4.9c-2.7,0-4.9,2.2-4.9,4.9c0,0,0,0.1,0,0.1L12.4,63.1c-0.1,0-0.2,0-0.3,0
		c-2.7,0-4.9,2.2-4.9,4.9c0,2.7,2.2,4.9,4.9,4.9c2.7,0,4.9-2.2,4.9-4.9c0,0,0,0,0,0l36.5-36.3c0.1,0,0.1,0,0.2,0c0.1,0,0.1,0,0.2,0
		L77.2,55c0.2,2.6,2.3,4.6,4.9,4.6c2.7,0,4.9-2.2,4.9-4.9c0-0.1,0-0.2,0-0.3l11.7-14.2l0.3,3c0,0,0.7,0.9,1.2,0.4
		c0.4-0.5,2.6-3.2,2.6-3.2S102.8,40,102.8,39.5z"/>
	<path fill="#FFFFFF" d="M77.2,64.9c0,0,1.8-4,0-5.8c-1.8-1.8-13.5-13.5-13.5-13.5v26.1h3.8C71.7,71.2,75.3,68.6,77.2,64.9z"/>
	<path fill="#FFFFFF" d="M45.8,10h1.3C47,10.4,47,10.8,47,11.3v12.6c1.1-2.6,3.7-4.4,6.6-4.4c3.1,0,5.7,1.9,6.7,4.6V11.3
		c0-0.4,0-0.9-0.1-1.3h0.9c1.6,0,2.9-1.3,2.9-2.9c0-1.6-1.3-2.9-2.9-2.9H45.8c-1.6,0-2.9,1.3-2.9,2.9C42.9,8.7,44.2,10,45.8,10z"/>
	<path fill="#FFFFFF" d="M39.7,71.8h3.8V45.7c0,0-11.7,11.7-13.5,13.5c-1.8,1.8,0,5.8,0,5.8C32,68.6,35.5,71.2,39.7,71.8z"/>
	<path fill="#FFFFFF" d="M81,62.3c-0.9,7-6.9,12.5-14.2,12.5H40.1c-7.3,0-13.3-5.4-14.2-12.4l-4.9,5.1c2.1,7.5,11,13.3,19.1,13.3
		h26.7c9.3,0,19.3-9.6,19.7-19.2c-0.8,0.3-2.3,0.9-3.5,1C81.9,62.6,81.4,62.4,81,62.3z"/>
</g>
</svg>
